<!-- by TradingView --><svg xmlns="http://www.w3.org/2000/svg" width="18" height="18" viewBox="0 0 18 18"><path fill="#2962FF" d="M0 0h18v18H0z"/><circle cx="13" cy="6" r="1" fill="#fff"/><path d="M10.68 5.37c.1-.33.25-.63.46-.89a5 5 0 1 0-.02 9.05 2.4 2.4 0 0 1-.45-.9A4 4 0 0 1 5 9.01L4.97 9 5 8.98a4 4 0 0 1 5.68-3.61ZM6.5 8.5a.5.5 0 0 0 0 1h6.63a1 1 0 1 0 0-1H6.5Zm6.16 2.56a1 1 0 1 1-.65.77L11 11H7.5a.5.5 0 0 1 0-1h3.84l1.32 1.06Zm.65-4.64a.5.5 0 1 0-.63-.78L10.98 7H7.5a.5.5 0 0 0 0 1h3.84l1.97-1.58Z" fill="#fff"/></svg>